<svg width="207" height="181" viewBox="0 0 207 181" fill="none" xmlns="http://www.w3.org/2000/svg">
<g opacity="0.9">
<path opacity="0.9" d="M167.067 90.3881H142.928C142.916 83.1532 140.036 76.218 134.921 71.1022C129.805 65.9864 122.87 63.1071 115.635 63.0952C108.397 63.1031 101.458 65.9806 96.3392 71.0968C91.2201 76.2131 88.3387 83.1506 88.3267 90.3881H64.187C64.203 76.7496 69.629 63.6745 79.2743 54.0321C88.9196 44.3896 101.996 38.9674 115.635 38.9554C129.271 38.9714 142.343 44.3952 151.986 54.0372C161.628 63.6793 167.051 76.7522 167.067 90.3881Z" fill="#00E8B7"/>
<path opacity="0.9" d="M91.2843 141.791C77.6458 141.775 64.5707 136.349 54.9282 126.704C45.2857 117.058 39.8635 103.982 39.8516 90.3431H63.9913C63.9953 97.5818 66.8716 104.523 71.9887 109.643C77.1059 114.763 84.0456 117.643 91.2843 117.651C98.523 117.643 105.463 114.763 110.58 109.643C115.697 104.523 118.573 97.5818 118.577 90.3431H142.717C142.705 103.982 137.283 117.058 127.64 126.704C117.998 136.349 104.923 141.775 91.2843 141.791Z" fill="#00E8B7"/>
</g>
<g opacity="0.75">
<path opacity="0.75" d="M25.2327 90.3882C25.2327 78.517 27.5711 66.7621 32.1145 55.7947C36.6578 44.8273 43.3171 34.8622 51.712 26.4687C60.107 18.0752 70.0731 11.4176 81.0412 6.87604C92.0093 2.3345 103.765 -0.00198025 115.636 1.25929e-06C139.608 1.25929e-06 162.599 9.52302 179.55 26.4741C196.501 43.4251 206.024 66.4157 206.024 90.3882H167.068C167.068 76.7474 161.65 63.6653 152.004 54.0199C142.359 44.3744 129.277 38.9556 115.636 38.9556C101.994 38.9556 88.91 44.3739 79.2621 54.0189C69.6143 63.664 64.1921 76.746 64.1881 90.3882H25.2327Z" fill="#00E8B7"/>
<path opacity="0.75" d="M181.688 90.3885C181.688 102.26 179.35 114.016 174.806 124.984C170.263 135.953 163.604 145.919 155.209 154.313C146.815 162.708 136.849 169.367 125.881 173.91C114.912 178.453 103.157 180.792 91.2848 180.792C67.3084 180.792 44.314 171.267 27.3601 154.313C10.4062 137.359 0.881592 114.365 0.881592 90.3885H39.8521C39.8521 104.031 45.2704 117.114 54.9155 126.762C64.5605 136.41 77.6426 141.832 91.2848 141.836C104.927 141.832 118.009 136.41 127.654 126.762C137.299 117.114 142.717 104.031 142.717 90.3885H181.688Z" fill="#00E8B7"/>
</g>
</svg>
