<svg width="284" height="259" viewBox="0 0 284 259" fill="none" xmlns="http://www.w3.org/2000/svg">
<g opacity="0.9">
<path opacity="0.9" d="M206.067 129.359H181.928C181.916 122.124 179.036 115.189 173.921 110.073C168.805 104.957 161.87 102.078 154.635 102.066C147.397 102.074 140.458 104.952 135.339 110.068C130.22 115.184 127.339 122.122 127.327 129.359H103.187C103.203 115.721 108.629 102.646 118.274 93.0031C127.92 83.3607 140.996 77.9385 154.635 77.9265C168.271 77.9425 181.343 83.3663 190.986 93.0083C200.628 102.65 206.051 115.723 206.067 129.359Z" fill="#00E8B7"/>
<path opacity="0.9" d="M130.284 180.762C116.646 180.746 103.571 175.32 93.9282 165.675C84.2857 156.029 78.8635 142.953 78.8516 129.314H102.991C102.995 136.553 105.872 143.494 110.989 148.614C116.106 153.734 123.046 156.614 130.284 156.622C137.523 156.614 144.463 153.734 149.58 148.614C154.697 143.494 157.573 136.553 157.577 129.314H181.717C181.705 142.953 176.283 156.029 166.64 165.675C156.998 175.32 143.923 180.746 130.284 180.762V180.762Z" fill="#00E8B7"/>
</g>
<g opacity="0.75">
<path opacity="0.75" d="M64.2327 129.359C64.2327 117.488 66.5711 105.733 71.1145 94.7659C75.6578 83.7985 82.3171 73.8334 90.712 65.4399C99.107 57.0464 109.073 50.3888 120.041 45.8472C131.009 41.3057 142.765 38.9692 154.636 38.9712C178.608 38.9712 201.599 48.4942 218.55 65.4453C235.501 82.3963 245.024 105.387 245.024 129.359H206.069C206.069 115.719 200.65 102.637 191.004 92.991C181.359 83.3455 168.277 77.9267 154.636 77.9267C140.994 77.9267 127.91 83.3451 118.262 92.9901C108.614 102.635 103.192 115.717 103.188 129.359H64.2327Z" fill="#00E8B7"/>
<path opacity="0.75" d="M220.688 129.36C220.688 141.232 218.35 152.987 213.806 163.956C209.263 174.924 202.604 184.89 194.209 193.285C185.815 201.679 175.849 208.338 164.881 212.882C153.912 217.425 142.157 219.763 130.285 219.763C106.308 219.763 83.314 210.239 66.3601 193.285C49.4062 176.331 39.8816 153.336 39.8816 129.36H78.8521C78.8521 143.002 84.2704 156.086 93.9155 165.734C103.561 175.381 116.643 180.804 130.285 180.808C143.927 180.804 157.009 175.381 166.654 165.734C176.299 156.086 181.717 143.002 181.717 129.36H220.688Z" fill="#00E8B7"/>
</g>
<g opacity="0.6">
<path opacity="0.6" d="M25.2612 129.359C25.2652 95.0492 38.8974 62.1464 63.1592 37.8874C87.4211 13.6283 120.325 -2.333e-07 154.635 0C188.943 0 221.846 13.6288 246.105 37.8883C270.365 62.1477 283.994 95.0506 283.994 129.359H245.023C245.023 105.386 235.5 82.3956 218.549 65.4446C201.598 48.4935 178.607 38.9705 154.635 38.9705C142.764 38.9685 131.008 41.305 120.04 45.8465C109.072 50.3881 99.106 57.0457 90.7111 65.4392C82.3162 73.8327 75.6569 83.7978 71.1135 94.7652C66.5702 105.733 64.2317 117.487 64.2317 129.359H25.2612Z" fill="#00E8B7"/>
<path opacity="0.6" d="M259.643 129.359C259.643 163.668 246.015 196.573 221.756 220.835C197.497 245.096 164.594 258.729 130.284 258.733C95.975 258.729 63.0721 245.096 38.8131 220.835C14.5541 196.573 0.925781 163.668 0.925781 129.359H39.8812C39.8812 153.335 49.4058 176.33 66.3597 193.284C83.3136 210.238 106.308 219.762 130.284 219.762C154.261 219.762 177.255 210.238 194.209 193.284C211.163 176.33 220.688 153.335 220.688 129.359H259.643Z" fill="#00E8B7"/>
</g>
</svg>
