<svg width="361" height="337" viewBox="0 0 361 337" fill="none" xmlns="http://www.w3.org/2000/svg">
<g opacity="0.9">
<path opacity="0.9" d="M244.112 168.315H219.973C219.961 161.08 217.081 154.145 211.966 149.029C206.85 143.913 199.915 141.034 192.68 141.022C185.442 141.03 178.503 143.907 173.384 149.023C168.265 154.14 165.384 161.077 165.372 168.315H141.232C141.248 154.676 146.674 141.601 156.319 131.959C165.965 122.316 179.041 116.894 192.68 116.882C206.316 116.898 219.388 122.322 229.03 131.964C238.672 141.606 244.096 154.679 244.112 168.315Z" fill="#00E8B7"/>
<path opacity="0.9" d="M168.329 219.717C154.691 219.702 141.616 214.276 131.973 204.63C122.331 194.985 116.908 181.908 116.896 168.27H141.036C141.04 175.508 143.917 182.45 149.034 187.57C154.151 192.69 161.09 195.57 168.329 195.578C175.568 195.57 182.508 192.69 187.625 187.57C192.742 182.45 195.618 175.508 195.622 168.27H219.762C219.75 181.908 214.328 194.985 204.685 204.63C195.043 214.276 181.968 219.702 168.329 219.717Z" fill="#00E8B7"/>
</g>
<g opacity="0.75">
<path opacity="0.75" d="M102.278 168.315C102.278 156.443 104.616 144.689 109.159 133.721C113.703 122.754 120.362 112.789 128.757 104.395C137.152 96.0017 147.118 89.3441 158.086 84.8026C169.054 80.261 180.81 77.9245 192.681 77.9265C216.653 77.9265 239.644 87.4495 256.595 104.401C273.546 121.352 283.069 144.342 283.069 168.315H244.113C244.113 154.674 238.695 141.592 229.049 131.946C219.404 122.301 206.322 116.882 192.681 116.882C179.039 116.882 165.955 122.3 156.307 131.945C146.659 141.591 141.237 154.673 141.233 168.315H102.278Z" fill="#00E8B7"/>
<path opacity="0.75" d="M258.733 168.315C258.733 180.187 256.395 191.943 251.851 202.911C247.308 213.879 240.649 223.845 232.254 232.24C223.86 240.635 213.894 247.294 202.926 251.837C191.957 256.38 180.202 258.718 168.33 258.718C144.353 258.718 121.359 249.194 104.405 232.24C87.4511 215.286 77.9265 192.292 77.9265 168.315H116.897C116.897 181.957 122.315 195.041 131.96 204.689C141.605 214.337 154.688 219.759 168.33 219.763C181.972 219.759 195.054 214.337 204.699 204.689C214.344 195.041 219.762 181.957 219.762 168.315H258.733Z" fill="#00E8B7"/>
</g>
<g opacity="0.6">
<path opacity="0.6" d="M63.3062 168.314C63.3102 134.005 76.9423 101.102 101.204 76.8427C125.466 52.5837 158.37 38.9553 192.68 38.9553C226.988 38.9553 259.891 52.5842 284.15 76.8436C308.41 101.103 322.038 134.006 322.038 168.314H283.068C283.068 144.342 273.545 121.351 256.594 104.4C239.643 87.4488 216.652 77.9258 192.68 77.9258C180.809 77.9238 169.053 80.2603 158.085 84.8018C147.117 89.3434 137.151 96.001 128.756 104.395C120.361 112.788 113.702 122.753 109.158 133.721C104.615 144.688 102.277 156.443 102.277 168.314H63.3062Z" fill="#00E8B7"/>
<path opacity="0.6" d="M297.688 168.314C297.688 202.624 284.06 235.528 259.801 259.79C235.542 284.052 202.639 297.684 168.329 297.688C134.02 297.684 101.117 284.052 76.858 259.79C52.599 235.528 38.9707 202.624 38.9707 168.314H77.9261C77.9261 192.291 87.4507 215.285 104.405 232.239C121.359 249.193 144.353 258.717 168.329 258.717C192.306 258.717 215.3 249.193 232.254 232.239C249.208 215.285 258.733 192.291 258.733 168.314H297.688Z" fill="#00E8B7"/>
</g>
<g opacity="0.45">
<path opacity="0.45" d="M24.3508 168.314C24.3548 123.673 42.0912 80.8617 73.6587 49.2971C105.226 17.7326 148.039 -1.79312e-07 192.68 0C237.32 0 280.131 17.733 311.696 49.2981C343.261 80.8631 360.994 123.675 360.994 168.314H322.039C322.039 134.006 308.41 101.103 284.15 76.8438C259.891 52.5844 226.988 38.9556 192.68 38.9556C158.371 38.9556 125.466 52.5839 101.204 76.8429C76.9424 101.102 63.3103 134.005 63.3063 168.314H24.3508Z" fill="#00E8B7"/>
<path opacity="0.45" d="M336.658 168.314C336.646 212.95 318.906 255.754 287.34 287.312C255.773 318.87 212.965 336.598 168.329 336.598C123.693 336.598 80.8851 318.87 49.3185 287.312C17.752 255.754 0.0120021 212.95 0 168.314H38.9706C38.9706 202.624 52.5989 235.528 76.8579 259.79C101.117 284.052 134.02 297.684 168.329 297.688C202.639 297.684 235.541 284.052 259.801 259.79C284.06 235.528 297.688 202.624 297.688 168.314H336.658Z" fill="#00E8B7"/>
</g>
</svg>
