<svg width="129" height="103" viewBox="0 0 129 103" fill="none" xmlns="http://www.w3.org/2000/svg">
<g opacity="0.9">
<path opacity="0.9" d="M128.068 51.4326H103.928C103.916 44.1977 101.037 37.2626 95.9208 32.1467C90.805 27.0309 83.8699 24.1517 76.635 24.1397C69.3975 24.1477 62.4586 27.0251 57.3395 32.1414C52.2204 37.2577 49.3389 44.1951 49.327 51.4326H25.1873C25.2032 37.7941 30.6292 24.7191 40.2745 15.0766C49.9198 5.43417 62.9965 0.0119788 76.635 0C90.2709 0.0159718 103.344 5.43976 112.986 15.0818C122.628 24.7238 128.052 37.7967 128.068 51.4326Z" fill="#00E8B7"/>
<path opacity="0.9" d="M52.2845 102.835C38.646 102.819 25.5709 97.3936 15.9284 87.7483C6.28597 78.103 0.863785 65.0262 0.851807 51.3877H24.9915C24.9955 58.6264 27.8718 65.5678 32.989 70.6877C38.1061 75.8077 45.0458 78.6877 52.2845 78.6957C59.5232 78.6877 66.4629 75.8077 71.5801 70.6877C76.6972 65.5678 79.5735 58.6264 79.5775 51.3877H103.717C103.705 65.0262 98.2831 78.103 88.6406 87.7483C78.9981 97.3936 65.923 102.819 52.2845 102.835Z" fill="#00E8B7"/>
</g>
</svg>
