<svg width="439" height="415" viewBox="0 0 439 415" fill="none" xmlns="http://www.w3.org/2000/svg">
<g opacity="0.9">
<path opacity="0.9" d="M283.067 207.285H258.928C258.916 200.05 256.036 193.115 250.921 187.999C245.805 182.883 238.87 180.004 231.635 179.992C224.397 180 217.458 182.877 212.339 187.994C207.22 193.11 204.339 200.047 204.327 207.285H180.187C180.203 193.646 185.629 180.571 195.274 170.929C204.92 161.286 217.996 155.864 231.635 155.852C245.271 155.868 258.343 161.292 267.986 170.934C277.628 180.576 283.051 193.649 283.067 207.285Z" fill="#00E8B7"/>
<path opacity="0.9" d="M207.284 258.688C193.646 258.672 180.571 253.246 170.928 243.601C161.286 233.955 155.864 220.878 155.852 207.24H179.991C179.995 214.479 182.872 221.42 187.989 226.54C193.106 231.66 200.046 234.54 207.284 234.548C214.523 234.54 221.463 231.66 226.58 226.54C231.697 221.42 234.573 214.479 234.577 207.24H258.717C258.705 220.878 253.283 233.955 243.64 243.601C233.998 253.246 220.923 258.672 207.284 258.688Z" fill="#00E8B7"/>
</g>
<g opacity="0.75">
<path opacity="0.75" d="M141.233 207.285C141.233 195.414 143.571 183.659 148.115 172.692C152.658 161.724 159.317 151.759 167.712 143.366C176.107 134.972 186.073 128.315 197.041 123.773C208.01 119.231 219.765 116.895 231.636 116.897C255.609 116.897 278.599 126.42 295.55 143.371C312.501 160.322 322.024 183.313 322.024 207.285H283.069C283.069 193.644 277.65 180.562 268.005 170.917C258.359 161.271 245.277 155.853 231.636 155.853C217.994 155.853 204.91 161.271 195.262 170.916C185.614 180.561 180.192 193.643 180.188 207.285H141.233Z" fill="#00E8B7"/>
<path opacity="0.75" d="M297.688 207.286C297.688 219.158 295.35 230.913 290.807 241.881C286.264 252.85 279.604 262.816 271.21 271.21C262.815 279.605 252.849 286.264 241.881 290.807C230.913 295.351 219.157 297.689 207.285 297.689C183.309 297.689 160.314 288.164 143.36 271.21C126.406 254.257 116.882 231.262 116.882 207.286H155.852C155.852 220.928 161.271 234.011 170.916 243.659C180.561 253.307 193.643 258.729 207.285 258.733C220.927 258.729 234.009 253.307 243.654 243.659C253.299 234.011 258.718 220.928 258.718 207.286H297.688Z" fill="#00E8B7"/>
</g>
<g opacity="0.6">
<path opacity="0.6" d="M102.261 207.284C102.265 172.975 115.898 140.072 140.159 115.813C164.421 91.5541 197.326 77.9258 231.635 77.9258C265.943 77.9258 298.846 91.5546 323.106 115.814C347.365 140.074 360.994 172.976 360.994 207.284H322.023C322.023 183.312 312.5 160.321 295.549 143.37C278.598 126.419 255.608 116.896 231.635 116.896C219.764 116.894 208.009 119.231 197.041 123.772C186.072 128.314 176.106 134.971 167.711 143.365C159.316 151.759 152.657 161.724 148.114 172.691C143.57 183.658 141.232 195.413 141.232 207.284H102.261Z" fill="#00E8B7"/>
<path opacity="0.6" d="M336.643 207.285C336.643 241.594 323.015 274.499 298.756 298.76C274.497 323.022 241.594 336.654 207.285 336.658C172.975 336.654 140.072 323.022 115.813 298.76C91.5543 274.499 77.926 241.594 77.926 207.285H116.881C116.881 231.261 126.406 254.256 143.36 271.209C160.314 288.163 183.308 297.688 207.285 297.688C231.261 297.688 254.255 288.163 271.209 271.209C288.163 254.256 297.688 231.261 297.688 207.285H336.643Z" fill="#00E8B7"/>
</g>
<g opacity="0.45">
<path opacity="0.45" d="M63.3062 207.284C63.3102 162.643 81.0466 119.832 112.614 88.2674C144.181 56.7028 186.994 38.9702 231.635 38.9702C276.275 38.9702 319.086 56.7033 350.651 88.2683C382.216 119.833 399.949 162.645 399.949 207.284H360.994C360.994 172.976 347.365 140.074 323.106 115.814C298.846 91.5546 265.943 77.9258 231.635 77.9258C197.326 77.9258 164.421 91.5541 140.16 115.813C115.898 140.072 102.266 172.975 102.262 207.284H63.3062Z" fill="#00E8B7"/>
<path opacity="0.45" d="M375.614 207.284C375.602 251.92 357.862 294.724 326.295 326.282C294.729 357.84 251.92 375.568 207.285 375.568C162.649 375.568 119.84 357.84 88.2738 326.282C56.7073 294.724 38.9673 251.92 38.9553 207.284H77.9259C77.9259 241.594 91.5542 274.498 115.813 298.76C140.072 323.022 172.975 336.654 207.285 336.658C241.594 336.654 274.497 323.022 298.756 298.76C323.015 274.498 336.643 241.594 336.643 207.284H375.614Z" fill="#00E8B7"/>
</g>
<g opacity="0.3">
<path opacity="0.3" d="M399.95 207.285C399.95 162.645 382.217 119.834 350.651 88.2685C319.086 56.7035 276.275 38.9705 231.635 38.9705C186.994 38.9705 144.182 56.703 112.614 88.2676C81.0467 119.832 63.3103 162.644 63.3063 207.285H24.4263C24.4263 152.309 46.2651 99.5857 85.1385 60.7123C124.012 21.8389 176.736 0 231.711 0C286.672 0.0240003 339.374 21.873 378.23 60.7434C417.086 99.6138 438.916 152.324 438.92 207.285H399.95Z" fill="#00E8B7"/>
<path opacity="0.3" d="M38.9555 207.285C38.9675 251.921 56.7074 294.724 88.274 326.282C119.841 357.84 162.649 375.569 207.285 375.569C251.921 375.569 294.729 357.84 326.295 326.282C357.862 294.724 375.602 251.921 375.614 207.285H414.569C414.557 262.252 392.713 314.964 353.841 353.828C314.969 392.691 262.252 414.524 207.285 414.524C152.317 414.524 99.6004 392.691 60.7283 353.828C21.8562 314.964 0.0120025 262.252 0 207.285H38.9555Z" fill="#00E8B7"/>
</g>
</svg>
