<svg width="273" height="256" viewBox="0 0 273 256" fill="none" xmlns="http://www.w3.org/2000/svg">
<g opacity="0.9">
<path d="M47.874 128.478C47.7343 115.544 50.1616 102.711 55.0154 90.7212C59.8691 78.7314 67.0531 67.8231 76.1513 58.6277C85.2496 49.4322 96.0815 42.1321 108.02 37.15C119.959 32.1678 132.768 29.6025 145.704 29.6025C158.641 29.6025 171.45 32.1678 183.389 37.15C195.327 42.1321 206.159 49.4322 215.258 58.6277C224.356 67.8231 231.54 78.7314 236.394 90.7212C241.247 102.711 243.675 115.544 243.535 128.478H214.076C214.076 110.35 206.873 92.9637 194.052 80.1448C181.231 67.326 163.842 60.1245 145.71 60.1245C127.579 60.1245 110.189 67.326 97.3684 80.1448C84.5474 92.9637 77.3446 110.35 77.3446 128.478H47.874Z" fill="#00E8B7"/>
<path d="M225.12 128.479C225.12 154.419 214.813 179.297 196.468 197.639C178.122 215.982 153.24 226.286 127.295 226.286C101.35 226.286 76.4683 215.982 58.1226 197.639C39.7769 179.297 29.4703 154.419 29.4703 128.479H58.9296C58.9296 146.607 66.1324 163.993 78.9534 176.812C91.7744 189.631 109.163 196.832 127.295 196.832C145.427 196.832 162.816 189.631 175.637 176.812C188.458 163.993 195.661 146.607 195.661 128.479H225.12Z" fill="#00E8B7"/>
</g>
<g opacity="0.15">
<path d="M18.4146 128.478C18.2554 111.664 21.4303 94.9847 27.7558 79.4042C34.0813 63.8237 43.4321 49.6509 55.2679 37.7046C67.1036 25.7583 81.1898 16.2754 96.7124 9.80374C112.235 3.3321 128.886 0 145.704 0C162.523 0 179.174 3.3321 194.697 9.80374C210.219 16.2754 224.305 25.7583 236.141 37.7046C247.977 49.6509 257.328 63.8237 263.653 79.4042C269.979 94.9847 273.153 111.664 272.994 128.478H243.535C243.675 115.545 241.247 102.711 236.394 90.7215C231.54 78.7316 224.356 67.8234 215.258 58.6279C206.159 49.4324 195.327 42.1324 183.389 37.1502C171.45 32.1681 158.641 29.6028 145.704 29.6028C132.768 29.6028 119.959 32.1681 108.02 37.1502C96.0815 42.1324 85.2495 49.4324 76.1513 58.6279C67.053 67.8234 59.8691 78.7316 55.0153 90.7215C50.1615 102.711 47.7342 115.545 47.8739 128.478H18.4146Z" fill="#00E8B7"/>
<path d="M254.591 128.478C254.591 162.233 241.18 194.606 217.307 218.474C193.434 242.342 161.056 255.752 127.296 255.752C93.5346 255.752 61.1565 242.342 37.284 218.474C13.4115 194.606 7.11457e-07 162.233 0 128.478H29.4707C29.4707 154.418 39.7772 179.296 58.1229 197.639C76.4686 215.981 101.351 226.286 127.296 226.286C153.24 226.286 178.122 215.981 196.468 197.639C214.814 179.296 225.12 154.418 225.12 128.478H254.591Z" fill="#00E8B7"/>
</g>
</svg>
