<svg width="16" height="16" viewBox="0 0 16 16" fill="none" xmlns="http://www.w3.org/2000/svg">
<path d="M14.4 0H1.6C0.721569 0 0 0.721569 0 1.6V14.4C0 15.2784 0.721569 16 1.6 16H14.4C15.2784 16 16 15.2784 16 14.4V1.6C16 0.721569 15.2784 0 14.4 0ZM4.8 13.6H2.4V6.4H4.8V13.6ZM3.60157 5.03843C2.80157 5.03843 2.16157 4.39843 2.16157 3.59843C2.16157 2.79843 2.80157 2.15843 3.60157 2.15843C4.40157 2.15843 5.04157 2.79843 5.04157 3.59843C5.04157 4.39843 4.39843 5.03843 3.60157 5.03843ZM13.6 13.6H11.2V9.36157C11.2 8.72157 10.6384 8.16314 10.0016 8.16314C9.36471 8.16314 8.80314 8.72471 8.80314 9.36157V13.6H6.4V6.4H8.8V7.36C9.20157 6.72 10.08 6.24 10.8016 6.24C12.3231 6.24 13.6 7.52 13.6 9.04157V13.6Z" fill="#00E8B7"/>
</svg>
