<svg width="1440" height="845" viewBox="0 0 1440 845" fill="none" xmlns="http://www.w3.org/2000/svg">
<mask id="mask0_878_302" style="mask-type:alpha" maskUnits="userSpaceOnUse" x="0" y="0" width="1440" height="845">
<rect width="1440" height="845" fill="#F5F5F8"/>
</mask>
<g mask="url(#mask0_878_302)">
<rect width="1440" height="845" fill="#151A32"/>
<g opacity="0.6">
<path opacity="0.9" d="M957.455 1010.42H841.181C841.123 975.563 827.244 942.147 802.586 917.504C777.929 892.86 744.506 878.999 709.645 878.961C674.796 879.018 641.392 892.889 616.75 917.53C592.108 942.172 578.239 975.576 578.182 1010.42H461.907C461.984 944.744 488.11 881.776 534.553 835.333C580.996 788.89 643.964 762.763 709.645 762.686C775.338 762.744 838.325 788.861 884.784 835.306C931.243 881.751 957.378 944.731 957.455 1010.42Z" fill="#00E8B7"/>
</g>
<g opacity="0.5">
<path opacity="0.8" d="M274.271 1010.43C274.271 894.956 320.14 784.216 401.789 702.567C483.438 620.919 594.178 575.05 709.647 575.05C766.827 575.04 823.45 586.293 876.28 608.169C929.111 630.044 977.115 662.113 1017.55 702.543C1057.99 742.972 1090.06 790.969 1111.95 843.796C1133.83 896.624 1145.1 953.245 1145.1 1010.43H957.457C957.438 944.714 931.321 881.701 884.849 835.243C838.378 788.785 775.358 762.687 709.647 762.687C643.943 762.687 580.929 788.788 534.47 835.248C488.01 881.708 461.909 944.721 461.909 1010.43H274.271Z" fill="#00E8B7"/>
</g>
<g opacity="0.4">
<path opacity="0.7" d="M86.5543 1010.43C86.5543 845.172 152.201 686.687 269.052 569.835C385.904 452.984 544.389 387.338 709.642 387.338C874.901 387.338 1033.39 452.982 1150.26 569.832C1267.12 686.681 1332.78 845.165 1332.8 1010.43H1145.09C1145.09 953.245 1133.83 896.624 1111.94 843.797C1090.06 790.969 1057.98 742.972 1017.55 702.543C977.11 662.113 929.106 630.044 876.275 608.169C823.444 586.293 766.822 575.04 709.642 575.05C594.173 575.05 483.433 620.919 401.784 702.567C320.135 784.216 274.265 894.956 274.265 1010.43H86.5543Z" fill="#00E8B7"/>
</g>
<g opacity="0.3">
<path opacity="0.6" d="M-101.075 1010.43C-101.075 795.408 -15.6593 589.198 136.381 437.157C288.422 285.116 494.633 199.7 709.651 199.7C924.663 199.719 1130.86 285.142 1282.9 437.178C1434.94 589.215 1520.36 795.414 1520.38 1010.43H1332.74C1332.72 845.167 1267.06 686.682 1150.19 569.833C1033.33 452.983 874.838 387.339 709.578 387.339C544.338 387.358 385.872 453.013 269.036 569.863C152.2 686.712 86.5636 845.186 86.5636 1010.43H-101.075Z" fill="#00E8B7"/>
</g>
<g opacity="0.2">
<path opacity="0.5" d="M1520.37 1010.42C1520.35 795.4 1434.92 589.189 1282.87 437.15C1130.82 285.112 924.599 199.699 709.575 199.699C494.57 199.718 288.377 285.142 136.352 437.18C-15.6724 589.219 -101.078 795.419 -101.078 1010.42H-288.789C-288.77 745.629 -183.571 491.683 3.6676 304.444C190.907 117.205 444.852 12.0079 709.648 11.9886C840.764 11.9886 970.597 37.8126 1091.73 87.9888C1212.87 138.165 1322.94 211.71 1415.65 304.423C1508.36 397.137 1581.91 507.203 1632.08 628.339C1682.26 749.475 1708.08 879.308 1708.08 1010.42H1520.37Z" fill="#00E8B7"/>
</g>
<g opacity="0.15">
<path opacity="0.4" d="M-476.428 1010.43C-476.428 695.859 -351.467 394.176 -129.035 171.744C93.3973 -50.6886 395.08 -175.649 709.647 -175.649C1024.22 -175.649 1325.91 -50.69 1548.35 171.74C1770.8 394.17 1895.78 695.853 1895.79 1010.43H1708.08C1708.08 745.624 1602.89 491.668 1415.65 304.425C1228.41 117.181 974.449 11.9901 709.647 11.9901C444.851 12.0093 190.906 117.207 3.66681 304.446C-183.572 491.685 -288.771 745.63 -288.79 1010.43H-476.428Z" fill="#00E8B7"/>
</g>
<g opacity="0.1">
<path opacity="0.3" d="M1895.79 1010.43C1895.77 695.852 1770.79 394.17 1548.35 171.739C1325.91 -50.6907 1024.22 -175.649 709.643 -175.649C395.077 -175.649 93.3936 -50.6892 -129.039 171.743C-351.471 394.175 -476.432 695.859 -476.432 1010.43H-664.07C-664.07 251.733 -49.0494 -363.07 709.425 -363.07C1467.9 -363.07 2082.92 251.951 2082.92 1010.43H1895.79Z" fill="#00E8B7"/>
</g>
<g opacity="0.05">
<path opacity="0.2" d="M-851.781 1010.43C-851.781 148.103 -152.679 -551 709.643 -551C1571.97 -551 2271.14 148.103 2271.14 1010.43H2083.43C2083.43 251.733 1468.41 -363.07 709.934 -363.07C-48.5404 -363.07 -663.561 251.951 -663.561 1010.43H-851.781Z" fill="#00E8B7"/>
</g>
</g>
</svg>
