<svg width="1150" height="996" viewBox="0 0 1150 996" fill="none" xmlns="http://www.w3.org/2000/svg">
<g opacity="0.6">
<path opacity="0.6" d="M203.38 1124.99H119.595C119.892 1112.36 117.66 1099.8 113.032 1088.05C108.404 1076.3 101.471 1065.59 92.643 1056.55C83.8147 1047.51 73.2684 1040.33 61.6242 1035.43C49.9801 1030.53 37.4731 1028 24.8386 1028C12.2041 1028 -0.302917 1030.53 -11.9471 1035.43C-23.5912 1040.33 -34.1375 1047.51 -42.9659 1056.55C-51.7942 1065.59 -58.7263 1076.3 -63.3548 1088.05C-67.9833 1099.8 -70.2148 1112.36 -69.9178 1124.99H-153.703C-154.109 1101.29 -149.791 1077.75 -141.001 1055.74C-132.211 1033.72 -119.124 1013.68 -102.505 996.777C-85.8853 979.873 -66.0657 966.448 -44.2021 957.283C-22.3386 948.119 1.13136 943.399 24.8386 943.399C48.5458 943.399 72.0157 948.119 93.8793 957.283C115.743 966.448 135.562 979.873 152.182 996.777C168.801 1013.68 181.888 1033.72 190.678 1055.74C199.468 1077.75 203.786 1101.29 203.38 1124.99Z" fill="#00E8B7"/>
</g>
<g opacity="0.5">
<path opacity="0.5" d="M-288.912 1124.99C-288.912 1041.79 -255.854 961.993 -197.009 903.158C-138.165 844.324 -58.354 811.271 24.8648 811.271C108.084 811.271 187.894 844.324 246.738 903.158C305.583 961.993 338.642 1041.79 338.642 1124.99H203.38C203.786 1101.29 199.468 1077.75 190.678 1055.74C181.888 1033.72 168.801 1013.68 152.182 996.777C135.562 979.874 115.743 966.448 93.8793 957.284C72.0157 948.119 48.5458 943.399 24.8386 943.399C1.13138 943.399 -22.3385 948.119 -44.2021 957.284C-66.0657 966.448 -85.8853 979.874 -102.505 996.777C-119.124 1013.68 -132.211 1033.72 -141.001 1055.74C-149.791 1077.75 -154.109 1101.29 -153.703 1124.99H-288.912Z" fill="#00E8B7"/>
</g>
<g opacity="0.4">
<path opacity="0.4" d="M-424.174 1124.99C-424.815 1065.63 -413.674 1006.73 -391.397 951.701C-369.119 896.672 -336.147 846.606 -294.389 804.401C-252.631 762.197 -202.916 728.692 -148.12 705.826C-93.325 682.959 -34.538 671.185 24.8387 671.185C84.2153 671.185 143.002 682.959 197.798 705.826C252.593 728.692 302.308 762.197 344.067 804.401C385.825 846.606 418.797 896.672 441.074 951.701C463.352 1006.73 474.492 1065.63 473.851 1124.99H338.642C338.642 1041.79 305.583 961.993 246.739 903.159C187.894 844.324 108.084 811.271 24.8649 811.271C-58.354 811.271 -138.165 844.324 -197.009 903.159C-255.854 961.993 -288.912 1041.79 -288.912 1124.99H-424.174Z" fill="#00E8B7"/>
</g>
<g opacity="0.3">
<path opacity="0.3" d="M-559.384 1124.99C-560.115 1047.82 -545.543 971.268 -516.511 899.758C-487.479 828.249 -444.561 763.2 -390.239 708.37C-335.916 653.54 -271.265 610.016 -200.021 580.314C-128.777 550.611 -52.3524 535.317 24.8375 535.317C102.027 535.317 178.452 550.611 249.696 580.314C320.94 610.016 385.591 653.54 439.914 708.37C494.236 763.2 537.154 828.249 566.186 899.758C595.218 971.268 609.79 1047.82 609.059 1124.99H473.85C474.491 1065.63 463.35 1006.73 441.073 951.701C418.796 896.672 385.824 846.606 344.066 804.401C302.307 762.197 252.592 728.692 197.797 705.826C143.001 682.959 84.2141 671.185 24.8375 671.185C-34.5391 671.185 -93.3262 682.959 -148.121 705.826C-202.917 728.692 -252.632 762.197 -294.39 804.401C-336.149 846.606 -369.121 896.672 -391.398 951.701C-413.675 1006.73 -424.816 1065.63 -424.175 1124.99H-559.384Z" fill="#00E8B7"/>
</g>
<g opacity="0.2">
<path opacity="0.2" d="M609.061 1124.99C609.792 1047.82 595.22 971.268 566.188 899.758C537.156 828.248 494.239 763.199 439.916 708.369C385.594 653.54 320.942 610.016 249.698 580.313C178.454 550.61 102.03 535.317 24.8397 535.317C-52.3503 535.317 -128.775 550.61 -200.019 580.313C-271.263 610.016 -335.914 653.54 -390.237 708.369C-444.559 763.199 -487.476 828.248 -516.509 899.758C-545.541 971.268 -560.113 1047.82 -559.382 1124.99H-694.591C-694.591 1030.53 -675.982 936.991 -639.825 849.717C-603.669 762.444 -550.675 683.145 -483.867 616.349C-417.059 549.553 -337.747 496.567 -250.458 460.418C-163.17 424.268 -69.6146 405.662 24.8658 405.662C119.346 405.662 212.901 424.268 300.19 460.418C387.478 496.567 466.791 549.553 533.599 616.349C600.406 683.145 653.401 762.444 689.557 849.717C725.713 936.991 744.323 1030.53 744.323 1124.99H609.061Z" fill="#00E8B7"/>
</g>
<g opacity="0.15">
<path opacity="0.15" d="M-829.854 1124.99C-830.737 1012.21 -809.281 900.369 -766.725 795.916C-724.169 691.464 -661.353 596.466 -581.9 516.403C-502.446 436.339 -407.928 372.793 -303.793 329.427C-199.659 286.062 -87.9681 263.735 24.838 263.735C137.644 263.735 249.334 286.062 353.469 329.427C457.603 372.793 552.122 436.339 631.575 516.403C711.029 596.466 773.844 691.464 816.401 795.916C858.957 900.369 880.413 1012.21 879.53 1124.99H744.321C744.321 934.216 668.521 751.251 533.597 616.35C398.673 481.449 215.676 405.662 24.8642 405.662C-165.948 405.662 -348.944 481.449 -483.868 616.35C-618.793 751.251 -694.592 934.216 -694.592 1124.99H-829.854Z" fill="#00E8B7"/>
</g>
<g opacity="0.1">
<path opacity="0.1" d="M879.53 1124.99C880.413 1012.21 858.957 900.368 816.401 795.915C773.844 691.462 711.029 596.465 631.576 516.401C552.122 436.338 457.604 372.791 353.469 329.426C249.334 286.06 137.644 263.734 24.8382 263.734C-87.9679 263.734 -199.658 286.06 -303.793 329.426C-407.927 372.791 -502.446 436.338 -581.899 516.401C-661.352 596.465 -724.168 691.462 -766.725 795.915C-809.281 900.368 -830.736 1012.21 -829.853 1124.99H-965.062C-965.062 578.334 -521.889 135.447 24.655 135.447C571.199 135.447 1014.37 578.544 1014.37 1124.99H879.53Z" fill="#00E8B7"/>
</g>
<g opacity="0.05">
<path opacity="0.05" d="M-1100.32 1124.99C-1100.32 503.674 -596.563 0 24.864 0C646.291 0 1150 503.674 1150 1124.99H1014.79C1014.79 578.335 571.565 135.448 25.0733 135.448C-521.418 135.448 -964.644 578.544 -964.644 1124.99H-1100.32Z" fill="#00E8B7"/>
</g>
</svg>
